<svg width="1024" height="753" viewBox="0 0 1024 753" fill="none" xmlns="http://www.w3.org/2000/svg">
<g clip-path="url(#clip0_122_130)">
<rect width="1024" height="753" fill="#121214"/>
<g opacity="0.2" filter="url(#filter0_f_122_130)">
<ellipse cx="544.5" cy="31" rx="670.5" ry="350" fill="#338AF3"/>
</g>
<path d="M65.0349 267C66.5302 267 67.6622 267.63 68.4308 268.891C69.2134 270.138 69.6047 271.953 69.6047 274.336C69.6047 276.719 69.2134 278.541 68.4308 279.802C67.6622 281.063 66.5302 281.693 65.0349 281.693C63.5536 281.693 62.4216 281.063 61.639 279.802C60.8564 278.541 60.4651 276.719 60.4651 274.336C60.4651 271.967 60.8564 270.152 61.639 268.891C62.4216 267.63 63.5536 267 65.0349 267ZM61.9534 274.336C61.9534 276.026 62.1072 277.35 62.4146 278.306L67.0683 269.099C66.5791 268.448 65.9013 268.122 65.0349 268.122C64.0706 268.122 63.316 268.635 62.771 269.66C62.2259 270.672 61.9534 272.23 61.9534 274.336ZM65.0349 280.55C66.0131 280.55 66.7748 280.044 67.3198 279.033C67.8648 278.008 68.1373 276.442 68.1373 274.336C68.1373 272.549 67.9627 271.163 67.6133 270.18L62.9596 279.469C63.4627 280.19 64.1545 280.55 65.0349 280.55Z" fill="url(#paint0_linear_122_130)" fill-opacity="0.6"/>
<path d="M66.2926 304.135H69.3741V305.236H61.3874V304.135H64.9511V292.455L61.5551 294.471L60.9682 293.536L65.1607 290.959H66.2926V304.135Z" fill="url(#paint1_linear_122_130)" fill-opacity="0.6"/>
<path d="M65.0349 314.502C66.5302 314.502 67.6622 315.133 68.4308 316.393C69.2134 317.64 69.6047 319.455 69.6047 321.838C69.6047 324.221 69.2134 326.043 68.4308 327.304C67.6622 328.565 66.5302 329.195 65.0349 329.195C63.5536 329.195 62.4216 328.565 61.639 327.304C60.8564 326.043 60.4651 324.221 60.4651 321.838C60.4651 319.469 60.8564 317.654 61.639 316.393C62.4216 315.133 63.5536 314.502 65.0349 314.502ZM61.9534 321.838C61.9534 323.529 62.1072 324.852 62.4146 325.808L67.0683 316.601C66.5791 315.95 65.9013 315.624 65.0349 315.624C64.0706 315.624 63.316 316.137 62.771 317.162C62.2259 318.174 61.9534 319.732 61.9534 321.838ZM65.0349 328.052C66.0131 328.052 66.7748 327.546 67.3198 326.535C67.8648 325.51 68.1373 323.944 68.1373 321.838C68.1373 320.051 67.9627 318.665 67.6133 317.682L62.9596 326.971C63.4627 327.692 64.1545 328.052 65.0349 328.052Z" fill="url(#paint2_linear_122_130)" fill-opacity="0.6"/>
<path d="M66.2926 351.637H69.3741V352.738H61.3874V351.637H64.9511V339.957L61.5551 341.973L60.9682 341.038L65.1607 338.461H66.2926V351.637Z" fill="url(#paint3_linear_122_130)" fill-opacity="0.6"/>
<path d="M66.2926 375.388H69.3741V376.489H61.3874V375.388H64.9511V363.708L61.5551 365.724L60.9682 364.789L65.1607 362.212H66.2926V375.388Z" fill="url(#paint4_linear_122_130)" fill-opacity="0.6"/>
<path d="M65.0349 385.755C66.5302 385.755 67.6622 386.386 68.4308 387.646C69.2134 388.893 69.6047 390.708 69.6047 393.091C69.6047 395.474 69.2134 397.296 68.4308 398.557C67.6622 399.818 66.5302 400.448 65.0349 400.448C63.5536 400.448 62.4216 399.818 61.639 398.557C60.8564 397.296 60.4651 395.474 60.4651 393.091C60.4651 390.722 60.8564 388.907 61.639 387.646C62.4216 386.386 63.5536 385.755 65.0349 385.755ZM61.9534 393.091C61.9534 394.782 62.1072 396.105 62.4146 397.061L67.0683 387.854C66.5791 387.203 65.9013 386.878 65.0349 386.878C64.0706 386.878 63.316 387.39 62.771 388.415C62.2259 389.427 61.9534 390.985 61.9534 393.091ZM65.0349 399.305C66.0131 399.305 66.7748 398.8 67.3198 397.788C67.8648 396.763 68.1373 395.197 68.1373 393.091C68.1373 391.304 67.9627 389.919 67.6133 388.935L62.9596 398.225C63.4627 398.945 64.1545 399.305 65.0349 399.305Z" fill="url(#paint5_linear_122_130)" fill-opacity="0.6"/>
<path d="M66.2926 422.89H69.3741V423.992H61.3874V422.89H64.9511V411.21L61.5551 413.226L60.9682 412.291L65.1607 409.714H66.2926V422.89Z" fill="url(#paint6_linear_122_130)" fill-opacity="0.6"/>
<path d="M65.0349 433.257C66.5302 433.257 67.6622 433.888 68.4308 435.149C69.2134 436.396 69.6047 438.211 69.6047 440.594C69.6047 442.977 69.2134 444.798 68.4308 446.059C67.6622 447.32 66.5302 447.95 65.0349 447.95C63.5536 447.95 62.4216 447.32 61.639 446.059C60.8564 444.798 60.4651 442.977 60.4651 440.594C60.4651 438.224 60.8564 436.409 61.639 435.149C62.4216 433.888 63.5536 433.257 65.0349 433.257ZM61.9534 440.594C61.9534 442.284 62.1072 443.607 62.4146 444.563L67.0683 435.356C66.5791 434.705 65.9013 434.38 65.0349 434.38C64.0706 434.38 63.316 434.892 62.771 435.918C62.2259 436.929 61.9534 438.488 61.9534 440.594ZM65.0349 446.807C66.0131 446.807 66.7748 446.302 67.3198 445.29C67.8648 444.265 68.1373 442.699 68.1373 440.594C68.1373 438.806 67.9627 437.421 67.6133 436.437L62.9596 445.727C63.4627 446.447 64.1545 446.807 65.0349 446.807Z" fill="url(#paint7_linear_122_130)" fill-opacity="0.6"/>
<path d="M65.0349 457.008C66.5302 457.008 67.6622 457.639 68.4308 458.9C69.2134 460.147 69.6047 461.962 69.6047 464.345C69.6047 466.728 69.2134 468.549 68.4308 469.81C67.6622 471.071 66.5302 471.701 65.0349 471.701C63.5536 471.701 62.4216 471.071 61.639 469.81C60.8564 468.549 60.4651 466.728 60.4651 464.345C60.4651 461.975 60.8564 460.16 61.639 458.9C62.4216 457.639 63.5536 457.008 65.0349 457.008ZM61.9534 464.345C61.9534 466.035 62.1072 467.358 62.4146 468.314L67.0683 459.107C66.5791 458.456 65.9013 458.131 65.0349 458.131C64.0706 458.131 63.316 458.643 62.771 459.669C62.2259 460.68 61.9534 462.239 61.9534 464.345ZM65.0349 470.558C66.0131 470.558 66.7748 470.053 67.3198 469.041C67.8648 468.016 68.1373 466.451 68.1373 464.345C68.1373 462.557 67.9627 461.172 67.6133 460.188L62.9596 469.478C63.4627 470.198 64.1545 470.558 65.0349 470.558Z" fill="url(#paint8_linear_122_130)" fill-opacity="0.6"/>
<path d="M66.2926 494.143H69.3741V495.245H61.3874V494.143H64.9511V482.464L61.5551 484.48L60.9682 483.544L65.1607 480.967H66.2926V494.143Z" fill="url(#paint9_linear_122_130)" fill-opacity="0.6"/>
<path d="M65.0349 504.511C66.5302 504.511 67.6622 505.141 68.4308 506.402C69.2134 507.649 69.6047 509.464 69.6047 511.847C69.6047 514.23 69.2134 516.052 68.4308 517.312C67.6622 518.573 66.5302 519.204 65.0349 519.204C63.5536 519.204 62.4216 518.573 61.639 517.312C60.8564 516.052 60.4651 514.23 60.4651 511.847C60.4651 509.478 60.8564 507.663 61.639 506.402C62.4216 505.141 63.5536 504.511 65.0349 504.511ZM61.9534 511.847C61.9534 513.537 62.1072 514.86 62.4146 515.816L67.0683 506.61C66.5791 505.958 65.9013 505.633 65.0349 505.633C64.0706 505.633 63.316 506.145 62.771 507.171C62.2259 508.182 61.9534 509.741 61.9534 511.847ZM65.0349 518.061C66.0131 518.061 66.7748 517.555 67.3198 516.543C67.8648 515.518 68.1373 513.953 68.1373 511.847C68.1373 510.059 67.9627 508.674 67.6133 507.69L62.9596 516.98C63.4627 517.7 64.1545 518.061 65.0349 518.061Z" fill="url(#paint10_linear_122_130)" fill-opacity="0.6"/>
<path d="M66.2926 541.645H69.3741V542.747H61.3874V541.645H64.9511V529.966L61.5551 531.982L60.9682 531.046L65.1607 528.469H66.2926V541.645Z" fill="url(#paint11_linear_122_130)" fill-opacity="0.6"/>
<path d="M66.2926 565.396H69.3741V566.498H61.3874V565.396H64.9511V553.717L61.5551 555.733L60.9682 554.798L65.1607 552.221H66.2926V565.396Z" fill="url(#paint12_linear_122_130)" fill-opacity="0.6"/>
<path d="M103.965 314.502C105.46 314.502 106.592 315.133 107.361 316.393C108.144 317.64 108.535 319.455 108.535 321.838C108.535 324.221 108.144 326.043 107.361 327.304C106.592 328.565 105.46 329.195 103.965 329.195C102.484 329.195 101.352 328.565 100.569 327.304C99.7866 326.043 99.3953 324.221 99.3953 321.838C99.3953 319.469 99.7866 317.654 100.569 316.393C101.352 315.133 102.484 314.502 103.965 314.502ZM100.884 321.838C100.884 323.529 101.037 324.852 101.345 325.808L105.998 316.601C105.509 315.95 104.832 315.624 103.965 315.624C103.001 315.624 102.246 316.137 101.701 317.162C101.156 318.174 100.884 319.732 100.884 321.838ZM103.965 328.052C104.943 328.052 105.705 327.546 106.25 326.535C106.795 325.51 107.068 323.944 107.068 321.838C107.068 320.051 106.893 318.665 106.543 317.682L101.89 326.971C102.393 327.692 103.085 328.052 103.965 328.052Z" fill="url(#paint13_linear_122_130)" fill-opacity="0.6"/>
<path d="M105.223 351.637H108.304V352.738H100.318V351.637H103.881V339.957L100.485 341.973L99.8984 341.038L104.091 338.461H105.223V351.637Z" fill="url(#paint14_linear_122_130)" fill-opacity="0.6"/>
<path d="M103.965 362.004C105.46 362.004 106.592 362.635 107.361 363.895C108.144 365.142 108.535 366.957 108.535 369.34C108.535 371.723 108.144 373.545 107.361 374.806C106.592 376.067 105.46 376.697 103.965 376.697C102.484 376.697 101.352 376.067 100.569 374.806C99.7866 373.545 99.3953 371.723 99.3953 369.34C99.3953 366.971 99.7866 365.156 100.569 363.895C101.352 362.635 102.484 362.004 103.965 362.004ZM100.884 369.34C100.884 371.031 101.037 372.354 101.345 373.31L105.998 364.103C105.509 363.452 104.832 363.126 103.965 363.126C103.001 363.126 102.246 363.639 101.701 364.664C101.156 365.676 100.884 367.234 100.884 369.34ZM103.965 375.554C104.943 375.554 105.705 375.049 106.25 374.037C106.795 373.012 107.068 371.446 107.068 369.34C107.068 367.553 106.893 366.168 106.543 365.184L101.89 374.474C102.393 375.194 103.085 375.554 103.965 375.554Z" fill="url(#paint15_linear_122_130)" fill-opacity="0.6"/>
<path d="M103.965 385.755C105.46 385.755 106.592 386.386 107.361 387.646C108.144 388.893 108.535 390.708 108.535 393.091C108.535 395.474 108.144 397.296 107.361 398.557C106.592 399.818 105.46 400.448 103.965 400.448C102.484 400.448 101.352 399.818 100.569 398.557C99.7866 397.296 99.3953 395.474 99.3953 393.091C99.3953 390.722 99.7866 388.907 100.569 387.646C101.352 386.386 102.484 385.755 103.965 385.755ZM100.884 393.091C100.884 394.782 101.037 396.105 101.345 397.061L105.998 387.854C105.509 387.203 104.832 386.878 103.965 386.878C103.001 386.878 102.246 387.39 101.701 388.415C101.156 389.427 100.884 390.985 100.884 393.091ZM103.965 399.305C104.943 399.305 105.705 398.8 106.25 397.788C106.795 396.763 107.068 395.197 107.068 393.091C107.068 391.304 106.893 389.919 106.543 388.935L101.89 398.225C102.393 398.945 103.085 399.305 103.965 399.305Z" fill="url(#paint16_linear_122_130)" fill-opacity="0.6"/>
<path d="M105.223 422.89H108.304V423.992H100.318V422.89H103.881V411.21L100.485 413.226L99.8984 412.291L104.091 409.714H105.223V422.89Z" fill="url(#paint17_linear_122_130)" fill-opacity="0.6"/>
<path d="M103.965 433.257C105.46 433.257 106.592 433.888 107.361 435.149C108.144 436.396 108.535 438.211 108.535 440.594C108.535 442.977 108.144 444.798 107.361 446.059C106.592 447.32 105.46 447.95 103.965 447.95C102.484 447.95 101.352 447.32 100.569 446.059C99.7866 444.798 99.3953 442.977 99.3953 440.594C99.3953 438.224 99.7866 436.409 100.569 435.149C101.352 433.888 102.484 433.257 103.965 433.257ZM100.884 440.594C100.884 442.284 101.037 443.607 101.345 444.563L105.998 435.356C105.509 434.705 104.832 434.38 103.965 434.38C103.001 434.38 102.246 434.892 101.701 435.918C101.156 436.929 100.884 438.488 100.884 440.594ZM103.965 446.807C104.943 446.807 105.705 446.302 106.25 445.29C106.795 444.265 107.068 442.699 107.068 440.594C107.068 438.806 106.893 437.421 106.543 436.437L101.89 445.727C102.393 446.447 103.085 446.807 103.965 446.807Z" fill="url(#paint18_linear_122_130)" fill-opacity="0.6"/>
<path d="M105.223 470.392H108.304V471.494H100.318V470.392H103.881V458.713L100.485 460.728L99.8984 459.793L104.091 457.216H105.223V470.392Z" fill="url(#paint19_linear_122_130)" fill-opacity="0.6"/>
<path d="M103.965 480.76C105.46 480.76 106.592 481.39 107.361 482.651C108.144 483.898 108.535 485.713 108.535 488.096C108.535 490.479 108.144 492.301 107.361 493.561C106.592 494.822 105.46 495.453 103.965 495.453C102.484 495.453 101.352 494.822 100.569 493.561C99.7866 492.301 99.3953 490.479 99.3953 488.096C99.3953 485.726 99.7866 483.911 100.569 482.651C101.352 481.39 102.484 480.76 103.965 480.76ZM100.884 488.096C100.884 489.786 101.037 491.109 101.345 492.065L105.998 482.859C105.509 482.207 104.832 481.882 103.965 481.882C103.001 481.882 102.246 482.394 101.701 483.42C101.156 484.431 100.884 485.99 100.884 488.096ZM103.965 494.31C104.943 494.31 105.705 493.804 106.25 492.792C106.795 491.767 107.068 490.202 107.068 488.096C107.068 486.308 106.893 484.923 106.543 483.939L101.89 493.229C102.393 493.949 103.085 494.31 103.965 494.31Z" fill="url(#paint20_linear_122_130)" fill-opacity="0.6"/>
<path d="M103.965 504.511C105.46 504.511 106.592 505.141 107.361 506.402C108.144 507.649 108.535 509.464 108.535 511.847C108.535 514.23 108.144 516.052 107.361 517.312C106.592 518.573 105.46 519.204 103.965 519.204C102.484 519.204 101.352 518.573 100.569 517.312C99.7866 516.052 99.3953 514.23 99.3953 511.847C99.3953 509.478 99.7866 507.663 100.569 506.402C101.352 505.141 102.484 504.511 103.965 504.511ZM100.884 511.847C100.884 513.537 101.037 514.86 101.345 515.816L105.998 506.61C105.509 505.958 104.832 505.633 103.965 505.633C103.001 505.633 102.246 506.145 101.701 507.171C101.156 508.182 100.884 509.741 100.884 511.847ZM103.965 518.061C104.943 518.061 105.705 517.555 106.25 516.543C106.795 515.518 107.068 513.953 107.068 511.847C107.068 510.059 106.893 508.674 106.543 507.69L101.89 516.98C102.393 517.7 103.085 518.061 103.965 518.061Z" fill="url(#paint21_linear_122_130)" fill-opacity="0.6"/>
<path d="M105.223 541.645H108.304V542.747H100.318V541.645H103.881V529.966L100.485 531.982L99.8984 531.046L104.091 528.469H105.223V541.645Z" fill="url(#paint22_linear_122_130)" fill-opacity="0.6"/>
<path d="M103.965 552.013C105.46 552.013 106.592 552.643 107.361 553.904C108.144 555.151 108.535 556.966 108.535 559.349C108.535 561.732 108.144 563.554 107.361 564.815C106.592 566.075 105.46 566.706 103.965 566.706C102.484 566.706 101.352 566.075 100.569 564.815C99.7866 563.554 99.3953 561.732 99.3953 559.349C99.3953 556.98 99.7866 555.165 100.569 553.904C101.352 552.643 102.484 552.013 103.965 552.013ZM100.884 559.349C100.884 561.039 101.037 562.362 101.345 563.318L105.998 554.112C105.509 553.461 104.832 553.135 103.965 553.135C103.001 553.135 102.246 553.648 101.701 554.673C101.156 555.684 100.884 557.243 100.884 559.349ZM103.965 565.563C104.943 565.563 105.705 565.057 106.25 564.046C106.795 563.02 107.068 561.455 107.068 559.349C107.068 557.562 106.893 556.176 106.543 555.192L101.89 564.482C102.393 565.202 103.085 565.563 103.965 565.563Z" fill="url(#paint23_linear_122_130)" fill-opacity="0.6"/>
<path d="M105.223 589.147H108.304V590.249H100.318V589.147H103.881V577.468L100.485 579.484L99.8984 578.549L104.091 575.972H105.223V589.147Z" fill="url(#paint24_linear_122_130)" fill-opacity="0.6"/>
<path d="M105.223 612.899H108.304V614H100.318V612.899H103.881V601.219L100.485 603.235L99.8984 602.3L104.091 599.723H105.223V612.899Z" fill="url(#paint25_linear_122_130)" fill-opacity="0.6"/>
<path d="M45.5698 338.253C47.0651 338.253 48.1971 338.884 48.9657 340.144C49.7483 341.391 50.1396 343.206 50.1396 345.589C50.1396 347.972 49.7483 349.794 48.9657 351.055C48.1971 352.316 47.0651 352.946 45.5698 352.946C44.0885 352.946 42.9565 352.316 42.1739 351.055C41.3913 349.794 41 347.972 41 345.589C41 343.22 41.3913 341.405 42.1739 340.144C42.9565 338.884 44.0885 338.253 45.5698 338.253ZM42.4883 345.589C42.4883 347.28 42.6421 348.603 42.9495 349.559L47.6032 340.352C47.114 339.701 46.4363 339.375 45.5698 339.375C44.6055 339.375 43.8509 339.888 43.3059 340.913C42.7608 341.925 42.4883 343.483 42.4883 345.589ZM45.5698 351.803C46.5481 351.803 47.3097 351.297 47.8547 350.286C48.3997 349.261 48.6722 347.695 48.6722 345.589C48.6722 343.802 48.4976 342.417 48.1482 341.433L43.4945 350.722C43.9976 351.443 44.6894 351.803 45.5698 351.803Z" fill="url(#paint26_linear_122_130)" fill-opacity="0.6"/>
<path d="M45.5698 362.004C47.0651 362.004 48.1971 362.635 48.9657 363.895C49.7483 365.142 50.1396 366.957 50.1396 369.34C50.1396 371.723 49.7483 373.545 48.9657 374.806C48.1971 376.067 47.0651 376.697 45.5698 376.697C44.0885 376.697 42.9565 376.067 42.1739 374.806C41.3913 373.545 41 371.723 41 369.34C41 366.971 41.3913 365.156 42.1739 363.895C42.9565 362.635 44.0885 362.004 45.5698 362.004ZM42.4883 369.34C42.4883 371.031 42.6421 372.354 42.9495 373.31L47.6032 364.103C47.114 363.452 46.4363 363.126 45.5698 363.126C44.6055 363.126 43.8509 363.639 43.3059 364.664C42.7608 365.676 42.4883 367.234 42.4883 369.34ZM45.5698 375.554C46.5481 375.554 47.3097 375.049 47.8547 374.037C48.3997 373.012 48.6722 371.446 48.6722 369.34C48.6722 367.553 48.4976 366.168 48.1482 365.184L43.4945 374.474C43.9976 375.194 44.6894 375.554 45.5698 375.554Z" fill="url(#paint27_linear_122_130)" fill-opacity="0.6"/>
<path d="M46.8276 399.139H49.909V400.24H41.9223V399.139H45.486V387.459L42.09 389.475L41.5031 388.54L45.6956 385.963H46.8276V399.139Z" fill="url(#paint28_linear_122_130)" fill-opacity="0.6"/>
<path d="M45.5698 409.506C47.0651 409.506 48.1971 410.137 48.9657 411.398C49.7483 412.644 50.1396 414.459 50.1396 416.842C50.1396 419.225 49.7483 421.047 48.9657 422.308C48.1971 423.569 47.0651 424.199 45.5698 424.199C44.0885 424.199 42.9565 423.569 42.1739 422.308C41.3913 421.047 41 419.225 41 416.842C41 414.473 41.3913 412.658 42.1739 411.398C42.9565 410.137 44.0885 409.506 45.5698 409.506ZM42.4883 416.842C42.4883 418.533 42.6421 419.856 42.9495 420.812L47.6032 411.605C47.114 410.954 46.4363 410.629 45.5698 410.629C44.6055 410.629 43.8509 411.141 43.3059 412.166C42.7608 413.178 42.4883 414.737 42.4883 416.842ZM45.5698 423.056C46.5481 423.056 47.3097 422.551 47.8547 421.539C48.3997 420.514 48.6722 418.948 48.6722 416.842C48.6722 415.055 48.4976 413.67 48.1482 412.686L43.4945 421.976C43.9976 422.696 44.6894 423.056 45.5698 423.056Z" fill="url(#paint29_linear_122_130)" fill-opacity="0.6"/>
<path d="M46.8276 446.641H49.909V447.743H41.9223V446.641H45.486V434.962L42.09 436.977L41.5031 436.042L45.6956 433.465H46.8276V446.641Z" fill="url(#paint30_linear_122_130)" fill-opacity="0.6"/>
<path d="M46.8276 470.392H49.909V471.494H41.9223V470.392H45.486V458.713L42.09 460.728L41.5031 459.793L45.6956 457.216H46.8276V470.392Z" fill="url(#paint31_linear_122_130)" fill-opacity="0.6"/>
<path d="M85.7577 304.135H88.8392V305.236H80.8525V304.135H84.4162V292.455L81.0202 294.471L80.4333 293.536L84.6258 290.959H85.7577V304.135Z" fill="url(#paint32_linear_122_130)" fill-opacity="0.6"/>
<path d="M84.5 314.502C85.9953 314.502 87.1273 315.133 87.8959 316.393C88.6785 317.64 89.0698 319.455 89.0698 321.838C89.0698 324.221 88.6785 326.043 87.8959 327.304C87.1273 328.565 85.9953 329.195 84.5 329.195C83.0187 329.195 81.8867 328.565 81.1041 327.304C80.3215 326.043 79.9302 324.221 79.9302 321.838C79.9302 319.469 80.3215 317.654 81.1041 316.393C81.8867 315.133 83.0187 314.502 84.5 314.502ZM81.4185 321.838C81.4185 323.529 81.5723 324.852 81.8797 325.808L86.5334 316.601C86.0442 315.95 85.3664 315.624 84.5 315.624C83.5357 315.624 82.7811 316.137 82.2361 317.162C81.691 318.174 81.4185 319.732 81.4185 321.838ZM84.5 328.052C85.4782 328.052 86.2399 327.546 86.7849 326.535C87.3299 325.51 87.6024 323.944 87.6024 321.838C87.6024 320.051 87.4277 318.665 87.0784 317.682L82.4247 326.971C82.9278 327.692 83.6196 328.052 84.5 328.052Z" fill="url(#paint33_linear_122_130)" fill-opacity="0.6"/>
<path d="M85.7577 351.637H88.8392V352.738H80.8525V351.637H84.4162V339.957L81.0202 341.973L80.4333 341.038L84.6258 338.461H85.7577V351.637Z" fill="url(#paint34_linear_122_130)" fill-opacity="0.6"/>
<path d="M85.7577 375.388H88.8392V376.489H80.8525V375.388H84.4162V363.708L81.0202 365.724L80.4333 364.789L84.6258 362.212H85.7577V375.388Z" fill="url(#paint35_linear_122_130)" fill-opacity="0.6"/>
<path d="M84.5 385.755C85.9953 385.755 87.1273 386.386 87.8959 387.646C88.6785 388.893 89.0698 390.708 89.0698 393.091C89.0698 395.474 88.6785 397.296 87.8959 398.557C87.1273 399.818 85.9953 400.448 84.5 400.448C83.0187 400.448 81.8867 399.818 81.1041 398.557C80.3215 397.296 79.9302 395.474 79.9302 393.091C79.9302 390.722 80.3215 388.907 81.1041 387.646C81.8867 386.386 83.0187 385.755 84.5 385.755ZM81.4185 393.091C81.4185 394.782 81.5723 396.105 81.8797 397.061L86.5334 387.854C86.0442 387.203 85.3664 386.878 84.5 386.878C83.5357 386.878 82.7811 387.39 82.2361 388.415C81.691 389.427 81.4185 390.985 81.4185 393.091ZM84.5 399.305C85.4782 399.305 86.2399 398.8 86.7849 397.788C87.3299 396.763 87.6024 395.197 87.6024 393.091C87.6024 391.304 87.4277 389.919 87.0784 388.935L82.4247 398.225C82.9278 398.945 83.6196 399.305 84.5 399.305Z" fill="url(#paint36_linear_122_130)" fill-opacity="0.6"/>
<path d="M85.7577 422.89H88.8392V423.992H80.8525V422.89H84.4162V411.21L81.0202 413.226L80.4333 412.291L84.6258 409.714H85.7577V422.89Z" fill="url(#paint37_linear_122_130)" fill-opacity="0.6"/>
<path d="M85.7577 446.641H88.8392V447.743H80.8525V446.641H84.4162V434.962L81.0202 436.977L80.4333 436.042L84.6258 433.465H85.7577V446.641Z" fill="url(#paint38_linear_122_130)" fill-opacity="0.6"/>
<path d="M84.5 457.008C85.9953 457.008 87.1273 457.639 87.8959 458.9C88.6785 460.147 89.0698 461.962 89.0698 464.345C89.0698 466.728 88.6785 468.549 87.8959 469.81C87.1273 471.071 85.9953 471.701 84.5 471.701C83.0187 471.701 81.8867 471.071 81.1041 469.81C80.3215 468.549 79.9302 466.728 79.9302 464.345C79.9302 461.975 80.3215 460.16 81.1041 458.9C81.8867 457.639 83.0187 457.008 84.5 457.008ZM81.4185 464.345C81.4185 466.035 81.5723 467.358 81.8797 468.314L86.5334 459.107C86.0442 458.456 85.3664 458.131 84.5 458.131C83.5357 458.131 82.7811 458.643 82.2361 459.669C81.691 460.68 81.4185 462.239 81.4185 464.345ZM84.5 470.558C85.4782 470.558 86.2399 470.053 86.7849 469.041C87.3299 468.016 87.6024 466.451 87.6024 464.345C87.6024 462.557 87.4277 461.172 87.0784 460.188L82.4247 469.478C82.9278 470.198 83.6196 470.558 84.5 470.558Z" fill="url(#paint39_linear_122_130)" fill-opacity="0.6"/>
<path d="M85.7577 494.143H88.8392V495.245H80.8525V494.143H84.4162V482.464L81.0202 484.48L80.4333 483.544L84.6258 480.967H85.7577V494.143Z" fill="url(#paint40_linear_122_130)" fill-opacity="0.6"/>
<path d="M84.5 504.511C85.9953 504.511 87.1273 505.141 87.8959 506.402C88.6785 507.649 89.0698 509.464 89.0698 511.847C89.0698 514.23 88.6785 516.052 87.8959 517.312C87.1273 518.573 85.9953 519.204 84.5 519.204C83.0187 519.204 81.8867 518.573 81.1041 517.312C80.3215 516.052 79.9302 514.23 79.9302 511.847C79.9302 509.478 80.3215 507.663 81.1041 506.402C81.8867 505.141 83.0187 504.511 84.5 504.511ZM81.4185 511.847C81.4185 513.537 81.5723 514.86 81.8797 515.816L86.5334 506.61C86.0442 505.958 85.3664 505.633 84.5 505.633C83.5357 505.633 82.7811 506.145 82.2361 507.171C81.691 508.182 81.4185 509.741 81.4185 511.847ZM84.5 518.061C85.4782 518.061 86.2399 517.555 86.7849 516.543C87.3299 515.518 87.6024 513.953 87.6024 511.847C87.6024 510.059 87.4277 508.674 87.0784 507.69L82.4247 516.98C82.9278 517.7 83.6196 518.061 84.5 518.061Z" fill="url(#paint41_linear_122_130)" fill-opacity="0.6"/>
<path d="M123.43 290.751C124.926 290.751 126.057 291.381 126.826 292.642C127.609 293.889 128 295.704 128 298.087C128 300.47 127.609 302.292 126.826 303.553C126.057 304.814 124.926 305.444 123.43 305.444C121.949 305.444 120.817 304.814 120.034 303.553C119.252 302.292 118.86 300.47 118.86 298.087C118.86 295.718 119.252 293.903 120.034 292.642C120.817 291.381 121.949 290.751 123.43 290.751ZM120.349 298.087C120.349 299.777 120.502 301.101 120.81 302.057L125.464 292.85C124.974 292.199 124.297 291.873 123.43 291.873C122.466 291.873 121.711 292.386 121.166 293.411C120.621 294.423 120.349 295.981 120.349 298.087ZM123.43 304.301C124.408 304.301 125.17 303.795 125.715 302.784C126.26 301.759 126.533 300.193 126.533 298.087C126.533 296.3 126.358 294.914 126.009 293.931L121.355 303.22C121.858 303.941 122.55 304.301 123.43 304.301Z" fill="url(#paint42_linear_122_130)" fill-opacity="0.6"/>
<path d="M124.688 327.886H127.769V328.987H119.783V327.886H123.346V316.206L119.95 318.222L119.363 317.287L123.556 314.71H124.688V327.886Z" fill="url(#paint43_linear_122_130)" fill-opacity="0.6"/>
<path d="M124.688 351.637H127.769V352.738H119.783V351.637H123.346V339.957L119.95 341.973L119.363 341.038L123.556 338.461H124.688V351.637Z" fill="url(#paint44_linear_122_130)" fill-opacity="0.6"/>
<path d="M123.43 362.004C124.926 362.004 126.057 362.635 126.826 363.895C127.609 365.142 128 366.957 128 369.34C128 371.723 127.609 373.545 126.826 374.806C126.057 376.067 124.926 376.697 123.43 376.697C121.949 376.697 120.817 376.067 120.034 374.806C119.252 373.545 118.86 371.723 118.86 369.34C118.86 366.971 119.252 365.156 120.034 363.895C120.817 362.635 121.949 362.004 123.43 362.004ZM120.349 369.34C120.349 371.031 120.502 372.354 120.81 373.31L125.464 364.103C124.974 363.452 124.297 363.126 123.43 363.126C122.466 363.126 121.711 363.639 121.166 364.664C120.621 365.676 120.349 367.234 120.349 369.34ZM123.43 375.554C124.408 375.554 125.17 375.049 125.715 374.037C126.26 373.012 126.533 371.446 126.533 369.34C126.533 367.553 126.358 366.168 126.009 365.184L121.355 374.474C121.858 375.194 122.55 375.554 123.43 375.554Z" fill="url(#paint45_linear_122_130)" fill-opacity="0.6"/>
<path d="M123.43 385.755C124.926 385.755 126.057 386.386 126.826 387.646C127.609 388.893 128 390.708 128 393.091C128 395.474 127.609 397.296 126.826 398.557C126.057 399.818 124.926 400.448 123.43 400.448C121.949 400.448 120.817 399.818 120.034 398.557C119.252 397.296 118.86 395.474 118.86 393.091C118.86 390.722 119.252 388.907 120.034 387.646C120.817 386.386 121.949 385.755 123.43 385.755ZM120.349 393.091C120.349 394.782 120.502 396.105 120.81 397.061L125.464 387.854C124.974 387.203 124.297 386.878 123.43 386.878C122.466 386.878 121.711 387.39 121.166 388.415C120.621 389.427 120.349 390.985 120.349 393.091ZM123.43 399.305C124.408 399.305 125.17 398.8 125.715 397.788C126.26 396.763 126.533 395.197 126.533 393.091C126.533 391.304 126.358 389.919 126.009 388.935L121.355 398.225C121.858 398.945 122.55 399.305 123.43 399.305Z" fill="url(#paint46_linear_122_130)" fill-opacity="0.6"/>
<g opacity="0.6">
<path d="M951.93 -33C953.356 -33 954.436 -32.395 955.17 -31.1851C955.916 -29.9885 956.29 -28.2468 956.29 -25.9599C956.29 -23.673 955.916 -21.9246 955.17 -20.7147C954.436 -19.5048 953.356 -18.8998 951.93 -18.8998C950.517 -18.8998 949.437 -19.5048 948.69 -20.7147C947.943 -21.9246 947.57 -23.673 947.57 -25.9599C947.57 -28.2335 947.943 -29.9752 948.69 -31.1851C949.437 -32.395 950.517 -33 951.93 -33ZM948.99 -25.9599C948.99 -24.3378 949.137 -23.068 949.43 -22.1506L953.87 -30.9857C953.403 -31.6106 952.756 -31.923 951.93 -31.923C951.01 -31.923 950.29 -31.4311 949.77 -30.4472C949.25 -29.4766 948.99 -27.9808 948.99 -25.9599ZM951.93 -19.9967C952.863 -19.9967 953.59 -20.482 954.11 -21.4526C954.63 -22.4365 954.89 -23.9389 954.89 -25.9599C954.89 -27.675 954.723 -29.0046 954.39 -29.9486L949.95 -21.0338C950.43 -20.3424 951.09 -19.9967 951.93 -19.9967Z" fill="url(#paint47_linear_122_130)"/>
<path d="M953.13 2.63655H956.07V3.69356H948.45V2.63655H951.85V-8.57181L948.61 -6.63727L948.05 -7.53474L952.05 -10.0078H953.13V2.63655Z" fill="url(#paint48_linear_122_130)"/>
<path d="M951.93 12.5856C953.356 12.5856 954.436 13.1906 955.17 14.4005C955.916 15.5971 956.29 17.3389 956.29 19.6257C956.29 21.9126 955.916 23.661 955.17 24.8709C954.436 26.0808 953.356 26.6858 951.93 26.6858C950.517 26.6858 949.437 26.0808 948.69 24.8709C947.943 23.661 947.57 21.9126 947.57 19.6257C947.57 17.3521 947.943 15.6104 948.69 14.4005C949.437 13.1906 950.517 12.5856 951.93 12.5856ZM948.99 19.6257C948.99 21.2478 949.137 22.5176 949.43 23.435L953.87 14.5999C953.403 13.975 952.756 13.6626 951.93 13.6626C951.01 13.6626 950.29 14.1545 949.77 15.1384C949.25 16.109 948.99 17.6048 948.99 19.6257ZM951.93 25.5889C952.863 25.5889 953.59 25.1036 954.11 24.133C954.63 23.1491 954.89 21.6467 954.89 19.6257C954.89 17.9106 954.723 16.581 954.39 15.637L949.95 24.5518C950.43 25.2432 951.09 25.5889 951.93 25.5889Z" fill="url(#paint49_linear_122_130)"/>
<path d="M953.13 48.2221H956.07V49.2792H948.45V48.2221H951.85V37.0138L948.61 38.9483L948.05 38.0509L952.05 35.5778H953.13V48.2221Z" fill="url(#paint50_linear_122_130)"/>
<path d="M953.13 71.015H956.07V72.072H948.45V71.015H951.85V59.8066L948.61 61.7411L948.05 60.8437L952.05 58.3706H953.13V71.015Z" fill="url(#paint51_linear_122_130)"/>
<path d="M951.93 80.964C953.356 80.964 954.436 81.569 955.17 82.7789C955.916 83.9755 956.29 85.7173 956.29 88.0041C956.29 90.291 955.916 92.0394 955.17 93.2493C954.436 94.4593 953.356 95.0642 951.93 95.0642C950.517 95.0642 949.437 94.4593 948.69 93.2493C947.943 92.0394 947.57 90.291 947.57 88.0041C947.57 85.7306 947.943 83.9888 948.69 82.7789C949.437 81.569 950.517 80.964 951.93 80.964ZM948.99 88.0041C948.99 89.6262 949.137 90.896 949.43 91.8134L953.87 82.9783C953.403 82.3534 952.756 82.041 951.93 82.041C951.01 82.041 950.29 82.5329 949.77 83.5168C949.25 84.4874 948.99 85.9832 948.99 88.0041ZM951.93 93.9673C952.863 93.9673 953.59 93.482 954.11 92.5114C954.63 91.5275 954.89 90.0251 954.89 88.0041C954.89 86.289 954.723 84.9594 954.39 84.0154L949.95 92.9302C950.43 93.6216 951.09 93.9673 951.93 93.9673Z" fill="url(#paint52_linear_122_130)"/>
<path d="M953.13 116.601H956.07V117.658H948.45V116.601H951.85V105.392L948.61 107.327L948.05 106.429L952.05 103.956H953.13V116.601Z" fill="url(#paint53_linear_122_130)"/>
<path d="M951.93 126.55C953.356 126.55 954.436 127.155 955.17 128.365C955.916 129.561 956.29 131.303 956.29 133.59C956.29 135.877 955.916 137.625 955.17 138.835C954.436 140.045 953.356 140.65 951.93 140.65C950.517 140.65 949.437 140.045 948.69 138.835C947.943 137.625 947.57 135.877 947.57 133.59C947.57 131.316 947.943 129.574 948.69 128.365C949.437 127.155 950.517 126.55 951.93 126.55ZM948.99 133.59C948.99 135.212 949.137 136.482 949.43 137.399L953.87 128.564C953.403 127.939 952.756 127.627 951.93 127.627C951.01 127.627 950.29 128.119 949.77 129.102C949.25 130.073 948.99 131.569 948.99 133.59ZM951.93 139.553C952.863 139.553 953.59 139.068 954.11 138.097C954.63 137.113 954.89 135.611 954.89 133.59C954.89 131.875 954.723 130.545 954.39 129.601L949.95 138.516C950.43 139.207 951.09 139.553 951.93 139.553Z" fill="url(#paint54_linear_122_130)"/>
<path d="M951.93 149.342C953.356 149.342 954.436 149.947 955.17 151.157C955.916 152.354 956.29 154.096 956.29 156.383C956.29 158.669 955.916 160.418 955.17 161.628C954.436 162.838 953.356 163.443 951.93 163.443C950.517 163.443 949.437 162.838 948.69 161.628C947.943 160.418 947.57 158.669 947.57 156.383C947.57 154.109 947.943 152.367 948.69 151.157C949.437 149.947 950.517 149.342 951.93 149.342ZM948.99 156.383C948.99 158.005 949.137 159.274 949.43 160.192L953.87 151.357C953.403 150.732 952.756 150.419 951.93 150.419C951.01 150.419 950.29 150.911 949.77 151.895C949.25 152.866 948.99 154.362 948.99 156.383ZM951.93 162.346C952.863 162.346 953.59 161.86 954.11 160.89C954.63 159.906 954.89 158.404 954.89 156.383C954.89 154.667 954.723 153.338 954.39 152.394L949.95 161.309C950.43 162 951.09 162.346 951.93 162.346Z" fill="url(#paint55_linear_122_130)"/>
<path d="M953.13 184.979H956.07V186.036H948.45V184.979H951.85V173.771L948.61 175.705L948.05 174.808L952.05 172.335H953.13V184.979Z" fill="url(#paint56_linear_122_130)"/>
<path d="M951.93 194.928C953.356 194.928 954.436 195.533 955.17 196.743C955.916 197.94 956.29 199.681 956.29 201.968C956.29 204.255 955.916 206.003 955.17 207.213C954.436 208.423 953.356 209.028 951.93 209.028C950.517 209.028 949.437 208.423 948.69 207.213C947.943 206.003 947.57 204.255 947.57 201.968C947.57 199.695 947.943 197.953 948.69 196.743C949.437 195.533 950.517 194.928 951.93 194.928ZM948.99 201.968C948.99 203.59 949.137 204.86 949.43 205.777L953.87 196.942C953.403 196.317 952.756 196.005 951.93 196.005C951.01 196.005 950.29 196.497 949.77 197.481C949.25 198.451 948.99 199.947 948.99 201.968ZM951.93 207.931C952.863 207.931 953.59 207.446 954.11 206.475C954.63 205.492 954.89 203.989 954.89 201.968C954.89 200.253 954.723 198.923 954.39 197.979L949.95 206.894C950.43 207.586 951.09 207.931 951.93 207.931Z" fill="url(#paint57_linear_122_130)"/>
<path d="M953.13 230.565H956.07V231.622H948.45V230.565H951.85V219.356L948.61 221.291L948.05 220.393L952.05 217.92H953.13V230.565Z" fill="url(#paint58_linear_122_130)"/>
<path d="M953.13 253.357H956.07V254.414H948.45V253.357H951.85V242.149L948.61 244.084L948.05 243.186L952.05 240.713H953.13V253.357Z" fill="url(#paint59_linear_122_130)"/>
<path d="M989.07 12.5856C990.497 12.5856 991.577 13.1906 992.31 14.4005C993.057 15.5971 993.43 17.3389 993.43 19.6257C993.43 21.9126 993.057 23.661 992.31 24.8709C991.577 26.0808 990.497 26.6858 989.07 26.6858C987.657 26.6858 986.577 26.0808 985.83 24.8709C985.084 23.661 984.71 21.9126 984.71 19.6257C984.71 17.3521 985.084 15.6104 985.83 14.4005C986.577 13.1906 987.657 12.5856 989.07 12.5856ZM986.13 19.6257C986.13 21.2478 986.277 22.5176 986.57 23.435L991.01 14.5999C990.543 13.975 989.897 13.6626 989.07 13.6626C988.15 13.6626 987.43 14.1545 986.91 15.1384C986.39 16.109 986.13 17.6048 986.13 19.6257ZM989.07 25.5889C990.003 25.5889 990.73 25.1036 991.25 24.133C991.77 23.1491 992.03 21.6467 992.03 19.6257C992.03 17.9106 991.863 16.581 991.53 15.637L987.09 24.5518C987.57 25.2432 988.23 25.5889 989.07 25.5889Z" fill="url(#paint60_linear_122_130)"/>
<path d="M990.27 48.2221H993.21V49.2792H985.59V48.2221H988.99V37.0138L985.75 38.9483L985.19 38.0509L989.19 35.5778H990.27V48.2221Z" fill="url(#paint61_linear_122_130)"/>
<path d="M989.07 58.1712C990.497 58.1712 991.577 58.7762 992.31 59.9861C993.057 61.1827 993.43 62.9245 993.43 65.2113C993.43 67.4982 993.057 69.2466 992.31 70.4565C991.577 71.6665 990.497 72.2714 989.07 72.2714C987.657 72.2714 986.577 71.6665 985.83 70.4565C985.084 69.2466 984.71 67.4982 984.71 65.2113C984.71 62.9378 985.084 61.196 985.83 59.9861C986.577 58.7762 987.657 58.1712 989.07 58.1712ZM986.13 65.2113C986.13 66.8334 986.277 68.1032 986.57 69.0206L991.01 60.1855C990.543 59.5606 989.897 59.2482 989.07 59.2482C988.15 59.2482 987.43 59.7401 986.91 60.724C986.39 61.6946 986.13 63.1904 986.13 65.2113ZM989.07 71.1745C990.003 71.1745 990.73 70.6892 991.25 69.7186C991.77 68.7347 992.03 67.2323 992.03 65.2113C992.03 63.4962 991.863 62.1666 991.53 61.2226L987.09 70.1374C987.57 70.8288 988.23 71.1745 989.07 71.1745Z" fill="url(#paint62_linear_122_130)"/>
<path d="M989.07 80.964C990.497 80.964 991.577 81.569 992.31 82.7789C993.057 83.9755 993.43 85.7173 993.43 88.0041C993.43 90.291 993.057 92.0394 992.31 93.2493C991.577 94.4593 990.497 95.0642 989.07 95.0642C987.657 95.0642 986.577 94.4593 985.83 93.2493C985.084 92.0394 984.71 90.291 984.71 88.0041C984.71 85.7306 985.084 83.9888 985.83 82.7789C986.577 81.569 987.657 80.964 989.07 80.964ZM986.13 88.0041C986.13 89.6262 986.277 90.896 986.57 91.8134L991.01 82.9783C990.543 82.3534 989.897 82.041 989.07 82.041C988.15 82.041 987.43 82.5329 986.91 83.5168C986.39 84.4874 986.13 85.9832 986.13 88.0041ZM989.07 93.9673C990.003 93.9673 990.73 93.482 991.25 92.5114C991.77 91.5275 992.03 90.0251 992.03 88.0041C992.03 86.289 991.863 84.9594 991.53 84.0154L987.09 92.9302C987.57 93.6216 988.23 93.9673 989.07 93.9673Z" fill="url(#paint63_linear_122_130)"/>
<path d="M990.27 116.601H993.21V117.658H985.59V116.601H988.99V105.392L985.75 107.327L985.19 106.429L989.19 103.956H990.27V116.601Z" fill="url(#paint64_linear_122_130)"/>
<path d="M989.07 126.55C990.497 126.55 991.577 127.155 992.31 128.365C993.057 129.561 993.43 131.303 993.43 133.59C993.43 135.877 993.057 137.625 992.31 138.835C991.577 140.045 990.497 140.65 989.07 140.65C987.657 140.65 986.577 140.045 985.83 138.835C985.084 137.625 984.71 135.877 984.71 133.59C984.71 131.316 985.084 129.574 985.83 128.365C986.577 127.155 987.657 126.55 989.07 126.55ZM986.13 133.59C986.13 135.212 986.277 136.482 986.57 137.399L991.01 128.564C990.543 127.939 989.897 127.627 989.07 127.627C988.15 127.627 987.43 128.119 986.91 129.102C986.39 130.073 986.13 131.569 986.13 133.59ZM989.07 139.553C990.003 139.553 990.73 139.068 991.25 138.097C991.77 137.113 992.03 135.611 992.03 133.59C992.03 131.875 991.863 130.545 991.53 129.601L987.09 138.516C987.57 139.207 988.23 139.553 989.07 139.553Z" fill="url(#paint65_linear_122_130)"/>
<path d="M990.27 162.186H993.21V163.243H985.59V162.186H988.99V150.978L985.75 152.912L985.19 152.015L989.19 149.542H990.27V162.186Z" fill="url(#paint66_linear_122_130)"/>
<path d="M989.07 172.135C990.497 172.135 991.577 172.74 992.31 173.95C993.057 175.147 993.43 176.888 993.43 179.175C993.43 181.462 993.057 183.211 992.31 184.421C991.577 185.63 990.497 186.235 989.07 186.235C987.657 186.235 986.577 185.63 985.83 184.421C985.084 183.211 984.71 181.462 984.71 179.175C984.71 176.902 985.084 175.16 985.83 173.95C986.577 172.74 987.657 172.135 989.07 172.135ZM986.13 179.175C986.13 180.797 986.277 182.067 986.57 182.985L991.01 174.15C990.543 173.525 989.897 173.212 989.07 173.212C988.15 173.212 987.43 173.704 986.91 174.688C986.39 175.659 986.13 177.154 986.13 179.175ZM989.07 185.139C990.003 185.139 990.73 184.653 991.25 183.683C991.77 182.699 992.03 181.196 992.03 179.175C992.03 177.46 991.863 176.131 991.53 175.187L987.09 184.101C987.57 184.793 988.23 185.139 989.07 185.139Z" fill="url(#paint67_linear_122_130)"/>
<path d="M989.07 194.928C990.497 194.928 991.577 195.533 992.31 196.743C993.057 197.94 993.43 199.681 993.43 201.968C993.43 204.255 993.057 206.003 992.31 207.213C991.577 208.423 990.497 209.028 989.07 209.028C987.657 209.028 986.577 208.423 985.83 207.213C985.084 206.003 984.71 204.255 984.71 201.968C984.71 199.695 985.084 197.953 985.83 196.743C986.577 195.533 987.657 194.928 989.07 194.928ZM986.13 201.968C986.13 203.59 986.277 204.86 986.57 205.777L991.01 196.942C990.543 196.317 989.897 196.005 989.07 196.005C988.15 196.005 987.43 196.497 986.91 197.481C986.39 198.451 986.13 199.947 986.13 201.968ZM989.07 207.931C990.003 207.931 990.73 207.446 991.25 206.475C991.77 205.492 992.03 203.989 992.03 201.968C992.03 200.253 991.863 198.923 991.53 197.979L987.09 206.894C987.57 207.586 988.23 207.931 989.07 207.931Z" fill="url(#paint68_linear_122_130)"/>
<path d="M990.27 230.565H993.21V231.622H985.59V230.565H988.99V219.356L985.75 221.291L985.19 220.393L989.19 217.92H990.27V230.565Z" fill="url(#paint69_linear_122_130)"/>
<path d="M989.07 240.514C990.497 240.514 991.577 241.119 992.31 242.329C993.057 243.525 993.43 245.267 993.43 247.554C993.43 249.841 993.057 251.589 992.31 252.799C991.577 254.009 990.497 254.614 989.07 254.614C987.657 254.614 986.577 254.009 985.83 252.799C985.084 251.589 984.71 249.841 984.71 247.554C984.71 245.28 985.084 243.538 985.83 242.329C986.577 241.119 987.657 240.514 989.07 240.514ZM986.13 247.554C986.13 249.176 986.277 250.446 986.57 251.363L991.01 242.528C990.543 241.903 989.897 241.591 989.07 241.591C988.15 241.591 987.43 242.083 986.91 243.066C986.39 244.037 986.13 245.533 986.13 247.554ZM989.07 253.517C990.003 253.517 990.73 253.032 991.25 252.061C991.77 251.077 992.03 249.575 992.03 247.554C992.03 245.839 991.863 244.509 991.53 243.565L987.09 252.48C987.57 253.171 988.23 253.517 989.07 253.517Z" fill="url(#paint70_linear_122_130)"/>
<path d="M990.27 276.15H993.21V277.207H985.59V276.15H988.99V264.942L985.75 266.876L985.19 265.979L989.19 263.506H990.27V276.15Z" fill="url(#paint71_linear_122_130)"/>
<path d="M990.27 298.943H993.21V300H985.59V298.943H988.99V287.735L985.75 289.669L985.19 288.772L989.19 286.299H990.27V298.943Z" fill="url(#paint72_linear_122_130)"/>
<path d="M933.36 35.3784C934.786 35.3784 935.866 35.9834 936.599 37.1933C937.346 38.3899 937.719 40.1317 937.719 42.4185C937.719 44.7054 937.346 46.4538 936.599 47.6637C935.866 48.8736 934.786 49.4786 933.36 49.4786C931.946 49.4786 930.867 48.8736 930.12 47.6637C929.373 46.4538 929 44.7054 929 42.4185C929 40.145 929.373 38.4032 930.12 37.1933C930.867 35.9834 931.946 35.3784 933.36 35.3784ZM930.42 42.4185C930.42 44.0406 930.567 45.3104 930.86 46.2278L935.3 37.3927C934.833 36.7678 934.186 36.4554 933.36 36.4554C932.44 36.4554 931.72 36.9473 931.2 37.9312C930.68 38.9018 930.42 40.3976 930.42 42.4185ZM933.36 48.3817C934.293 48.3817 935.02 47.8964 935.54 46.9258C936.06 45.9419 936.319 44.4395 936.319 42.4185C936.319 40.7034 936.153 39.3738 935.82 38.4298L931.38 47.3446C931.86 48.036 932.52 48.3817 933.36 48.3817Z" fill="url(#paint73_linear_122_130)"/>
<path d="M933.36 58.1712C934.786 58.1712 935.866 58.7762 936.599 59.9861C937.346 61.1827 937.719 62.9245 937.719 65.2113C937.719 67.4982 937.346 69.2466 936.599 70.4565C935.866 71.6665 934.786 72.2714 933.36 72.2714C931.946 72.2714 930.867 71.6665 930.12 70.4565C929.373 69.2466 929 67.4982 929 65.2113C929 62.9378 929.373 61.196 930.12 59.9861C930.867 58.7762 931.946 58.1712 933.36 58.1712ZM930.42 65.2113C930.42 66.8334 930.567 68.1032 930.86 69.0206L935.3 60.1855C934.833 59.5606 934.186 59.2482 933.36 59.2482C932.44 59.2482 931.72 59.7401 931.2 60.724C930.68 61.6946 930.42 63.1904 930.42 65.2113ZM933.36 71.1745C934.293 71.1745 935.02 70.6892 935.54 69.7186C936.06 68.7347 936.319 67.2323 936.319 65.2113C936.319 63.4962 936.153 62.1666 935.82 61.2226L931.38 70.1374C931.86 70.8288 932.52 71.1745 933.36 71.1745Z" fill="url(#paint74_linear_122_130)"/>
<path d="M934.56 93.8078H937.499V94.8648H929.88V93.8078H933.28V82.5994L930.04 84.5339L929.48 83.6365L933.48 81.1635H934.56V93.8078Z" fill="url(#paint75_linear_122_130)"/>
<path d="M933.36 103.757C934.786 103.757 935.866 104.362 936.599 105.572C937.346 106.768 937.719 108.51 937.719 110.797C937.719 113.084 937.346 114.832 936.599 116.042C935.866 117.252 934.786 117.857 933.36 117.857C931.946 117.857 930.867 117.252 930.12 116.042C929.373 114.832 929 113.084 929 110.797C929 108.523 929.373 106.782 930.12 105.572C930.867 104.362 931.946 103.757 933.36 103.757ZM930.42 110.797C930.42 112.419 930.567 113.689 930.86 114.606L935.3 105.771C934.833 105.146 934.186 104.834 933.36 104.834C932.44 104.834 931.72 105.326 931.2 106.31C930.68 107.28 930.42 108.776 930.42 110.797ZM933.36 116.76C934.293 116.76 935.02 116.275 935.54 115.304C936.06 114.32 936.319 112.818 936.319 110.797C936.319 109.082 936.153 107.752 935.82 106.808L931.38 115.723C931.86 116.414 932.52 116.76 933.36 116.76Z" fill="url(#paint76_linear_122_130)"/>
<path d="M934.56 139.393H937.499V140.45H929.88V139.393H933.28V128.185L930.04 130.12L929.48 129.222L933.48 126.749H934.56V139.393Z" fill="url(#paint77_linear_122_130)"/>
<path d="M934.56 162.186H937.499V163.243H929.88V162.186H933.28V150.978L930.04 152.912L929.48 152.015L933.48 149.542H934.56V162.186Z" fill="url(#paint78_linear_122_130)"/>
<path d="M971.7 2.63655H974.64V3.69356H967.02V2.63655H970.42V-8.57181L967.18 -6.63727L966.62 -7.53474L970.62 -10.0078H971.7V2.63655Z" fill="url(#paint79_linear_122_130)"/>
<path d="M970.5 12.5856C971.927 12.5856 973.006 13.1906 973.74 14.4005C974.486 15.5971 974.86 17.3389 974.86 19.6257C974.86 21.9126 974.486 23.661 973.74 24.8709C973.006 26.0808 971.927 26.6858 970.5 26.6858C969.087 26.6858 968.007 26.0808 967.26 24.8709C966.514 23.661 966.14 21.9126 966.14 19.6257C966.14 17.3521 966.514 15.6104 967.26 14.4005C968.007 13.1906 969.087 12.5856 970.5 12.5856ZM967.56 19.6257C967.56 21.2478 967.707 22.5176 968 23.435L972.44 14.5999C971.973 13.975 971.327 13.6626 970.5 13.6626C969.58 13.6626 968.86 14.1545 968.34 15.1384C967.82 16.109 967.56 17.6048 967.56 19.6257ZM970.5 25.5889C971.433 25.5889 972.16 25.1036 972.68 24.133C973.2 23.1491 973.46 21.6467 973.46 19.6257C973.46 17.9106 973.293 16.581 972.96 15.637L968.52 24.5518C969 25.2432 969.66 25.5889 970.5 25.5889Z" fill="url(#paint80_linear_122_130)"/>
<path d="M971.7 48.2221H974.64V49.2792H967.02V48.2221H970.42V37.0138L967.18 38.9483L966.62 38.0509L970.62 35.5778H971.7V48.2221Z" fill="url(#paint81_linear_122_130)"/>
<path d="M971.7 71.015H974.64V72.072H967.02V71.015H970.42V59.8066L967.18 61.7411L966.62 60.8437L970.62 58.3706H971.7V71.015Z" fill="url(#paint82_linear_122_130)"/>
<path d="M970.5 80.964C971.927 80.964 973.006 81.569 973.74 82.7789C974.486 83.9755 974.86 85.7173 974.86 88.0041C974.86 90.291 974.486 92.0394 973.74 93.2493C973.006 94.4593 971.927 95.0642 970.5 95.0642C969.087 95.0642 968.007 94.4593 967.26 93.2493C966.514 92.0394 966.14 90.291 966.14 88.0041C966.14 85.7306 966.514 83.9888 967.26 82.7789C968.007 81.569 969.087 80.964 970.5 80.964ZM967.56 88.0041C967.56 89.6262 967.707 90.896 968 91.8134L972.44 82.9783C971.973 82.3534 971.327 82.041 970.5 82.041C969.58 82.041 968.86 82.5329 968.34 83.5168C967.82 84.4874 967.56 85.9832 967.56 88.0041ZM970.5 93.9673C971.433 93.9673 972.16 93.482 972.68 92.5114C973.2 91.5275 973.46 90.0251 973.46 88.0041C973.46 86.289 973.293 84.9594 972.96 84.0154L968.52 92.9302C969 93.6216 969.66 93.9673 970.5 93.9673Z" fill="url(#paint83_linear_122_130)"/>
<path d="M971.7 116.601H974.64V117.658H967.02V116.601H970.42V105.392L967.18 107.327L966.62 106.429L970.62 103.956H971.7V116.601Z" fill="url(#paint84_linear_122_130)"/>
<path d="M971.7 139.393H974.64V140.45H967.02V139.393H970.42V128.185L967.18 130.12L966.62 129.222L970.62 126.749H971.7V139.393Z" fill="url(#paint85_linear_122_130)"/>
<path d="M970.5 149.342C971.927 149.342 973.006 149.947 973.74 151.157C974.486 152.354 974.86 154.096 974.86 156.383C974.86 158.669 974.486 160.418 973.74 161.628C973.006 162.838 971.927 163.443 970.5 163.443C969.087 163.443 968.007 162.838 967.26 161.628C966.514 160.418 966.14 158.669 966.14 156.383C966.14 154.109 966.514 152.367 967.26 151.157C968.007 149.947 969.087 149.342 970.5 149.342ZM967.56 156.383C967.56 158.005 967.707 159.274 968 160.192L972.44 151.357C971.973 150.732 971.327 150.419 970.5 150.419C969.58 150.419 968.86 150.911 968.34 151.895C967.82 152.866 967.56 154.362 967.56 156.383ZM970.5 162.346C971.433 162.346 972.16 161.86 972.68 160.89C973.2 159.906 973.46 158.404 973.46 156.383C973.46 154.667 973.293 153.338 972.96 152.394L968.52 161.309C969 162 969.66 162.346 970.5 162.346Z" fill="url(#paint86_linear_122_130)"/>
<path d="M971.7 184.979H974.64V186.036H967.02V184.979H970.42V173.771L967.18 175.705L966.62 174.808L970.62 172.335H971.7V184.979Z" fill="url(#paint87_linear_122_130)"/>
<path d="M970.5 194.928C971.927 194.928 973.006 195.533 973.74 196.743C974.486 197.94 974.86 199.681 974.86 201.968C974.86 204.255 974.486 206.003 973.74 207.213C973.006 208.423 971.927 209.028 970.5 209.028C969.087 209.028 968.007 208.423 967.26 207.213C966.514 206.003 966.14 204.255 966.14 201.968C966.14 199.695 966.514 197.953 967.26 196.743C968.007 195.533 969.087 194.928 970.5 194.928ZM967.56 201.968C967.56 203.59 967.707 204.86 968 205.777L972.44 196.942C971.973 196.317 971.327 196.005 970.5 196.005C969.58 196.005 968.86 196.497 968.34 197.481C967.82 198.451 967.56 199.947 967.56 201.968ZM970.5 207.931C971.433 207.931 972.16 207.446 972.68 206.475C973.2 205.492 973.46 203.989 973.46 201.968C973.46 200.253 973.293 198.923 972.96 197.979L968.52 206.894C969 207.586 969.66 207.931 970.5 207.931Z" fill="url(#paint88_linear_122_130)"/>
<path d="M1007.64 -10.2072C1009.07 -10.2072 1010.15 -9.60224 1010.88 -8.39232C1011.63 -7.1957 1012 -5.45395 1012 -3.16707C1012 -0.880196 1011.63 0.868206 1010.88 2.07812C1010.15 3.28804 1009.07 3.893 1007.64 3.893C1006.23 3.893 1005.15 3.28804 1004.4 2.07812C1003.65 0.868206 1003.28 -0.880196 1003.28 -3.16707C1003.28 -5.44065 1003.65 -7.1824 1004.4 -8.39232C1005.15 -9.60224 1006.23 -10.2072 1007.64 -10.2072ZM1004.7 -3.16707C1004.7 -1.54498 1004.85 -0.27523 1005.14 0.642178L1009.58 -8.19288C1009.11 -8.81779 1008.47 -9.13024 1007.64 -9.13024C1006.72 -9.13024 1006 -8.63829 1005.48 -7.6544C1004.96 -6.68381 1004.7 -5.18803 1004.7 -3.16707ZM1007.64 2.7961C1008.57 2.7961 1009.3 2.3108 1009.82 1.34021C1010.34 0.356319 1010.6 -1.14611 1010.6 -3.16707C1010.6 -4.88223 1010.43 -6.21181 1010.1 -7.15581L1005.66 1.75902C1006.14 2.45041 1006.8 2.7961 1007.64 2.7961Z" fill="url(#paint89_linear_122_130)"/>
<path d="M1008.84 25.4293H1011.78V26.4864H1004.16V25.4293H1007.56V14.221L1004.32 16.1555L1003.76 15.2581L1007.76 12.785H1008.84V25.4293Z" fill="url(#paint90_linear_122_130)"/>
<path d="M1008.84 48.2221H1011.78V49.2792H1004.16V48.2221H1007.56V37.0138L1004.32 38.9483L1003.76 38.0509L1007.76 35.5778H1008.84V48.2221Z" fill="url(#paint91_linear_122_130)"/>
<path d="M1007.64 58.1712C1009.07 58.1712 1010.15 58.7762 1010.88 59.9861C1011.63 61.1827 1012 62.9245 1012 65.2113C1012 67.4982 1011.63 69.2466 1010.88 70.4565C1010.15 71.6665 1009.07 72.2714 1007.64 72.2714C1006.23 72.2714 1005.15 71.6665 1004.4 70.4565C1003.65 69.2466 1003.28 67.4982 1003.28 65.2113C1003.28 62.9378 1003.65 61.196 1004.4 59.9861C1005.15 58.7762 1006.23 58.1712 1007.64 58.1712ZM1004.7 65.2113C1004.7 66.8334 1004.85 68.1032 1005.14 69.0206L1009.58 60.1855C1009.11 59.5606 1008.47 59.2482 1007.64 59.2482C1006.72 59.2482 1006 59.7401 1005.48 60.724C1004.96 61.6946 1004.7 63.1904 1004.7 65.2113ZM1007.64 71.1745C1008.57 71.1745 1009.3 70.6892 1009.82 69.7186C1010.34 68.7347 1010.6 67.2323 1010.6 65.2113C1010.6 63.4962 1010.43 62.1666 1010.1 61.2226L1005.66 70.1374C1006.14 70.8288 1006.8 71.1745 1007.64 71.1745Z" fill="url(#paint92_linear_122_130)"/>
<path d="M1007.64 80.964C1009.07 80.964 1010.15 81.569 1010.88 82.7789C1011.63 83.9755 1012 85.7173 1012 88.0041C1012 90.291 1011.63 92.0394 1010.88 93.2493C1010.15 94.4593 1009.07 95.0642 1007.64 95.0642C1006.23 95.0642 1005.15 94.4593 1004.4 93.2493C1003.65 92.0394 1003.28 90.291 1003.28 88.0041C1003.28 85.7306 1003.65 83.9888 1004.4 82.7789C1005.15 81.569 1006.23 80.964 1007.64 80.964ZM1004.7 88.0041C1004.7 89.6262 1004.85 90.896 1005.14 91.8134L1009.58 82.9783C1009.11 82.3534 1008.47 82.041 1007.64 82.041C1006.72 82.041 1006 82.5329 1005.48 83.5168C1004.96 84.4874 1004.7 85.9832 1004.7 88.0041ZM1007.64 93.9673C1008.57 93.9673 1009.3 93.482 1009.82 92.5114C1010.34 91.5275 1010.6 90.0251 1010.6 88.0041C1010.6 86.289 1010.43 84.9594 1010.1 84.0154L1005.66 92.9302C1006.14 93.6216 1006.8 93.9673 1007.64 93.9673Z" fill="url(#paint93_linear_122_130)"/>
</g>
</g>
<defs>
<filter id="filter0_f_122_130" x="-526.19" y="-719.19" width="2141.38" height="1500.38" filterUnits="userSpaceOnUse" color-interpolation-filters="sRGB">
<feFlood flood-opacity="0" result="BackgroundImageFix"/>
<feBlend mode="normal" in="SourceGraphic" in2="BackgroundImageFix" result="shape"/>
<feGaussianBlur stdDeviation="200.095" result="effect1_foregroundBlur_122_130"/>
</filter>
<linearGradient id="paint0_linear_122_130" x1="84.5" y1="267" x2="84.5" y2="578.381" gradientUnits="userSpaceOnUse">
<stop stop-color="#F7DD43"/>
<stop offset="1" stop-color="#F7DD43" stop-opacity="0"/>
</linearGradient>
<linearGradient id="paint1_linear_122_130" x1="84.5" y1="267" x2="84.5" y2="578.381" gradientUnits="userSpaceOnUse">
<stop stop-color="#F7DD43"/>
<stop offset="1" stop-color="#F7DD43" stop-opacity="0"/>
</linearGradient>
<linearGradient id="paint2_linear_122_130" x1="84.5" y1="267" x2="84.5" y2="578.381" gradientUnits="userSpaceOnUse">
<stop stop-color="#F7DD43"/>
<stop offset="1" stop-color="#F7DD43" stop-opacity="0"/>
</linearGradient>
<linearGradient id="paint3_linear_122_130" x1="84.5" y1="267" x2="84.5" y2="578.381" gradientUnits="userSpaceOnUse">
<stop stop-color="#F7DD43"/>
<stop offset="1" stop-color="#F7DD43" stop-opacity="0"/>
</linearGradient>
<linearGradient id="paint4_linear_122_130" x1="84.5" y1="267" x2="84.5" y2="578.381" gradientUnits="userSpaceOnUse">
<stop stop-color="#F7DD43"/>
<stop offset="1" stop-color="#F7DD43" stop-opacity="0"/>
</linearGradient>
<linearGradient id="paint5_linear_122_130" x1="84.5" y1="267" x2="84.5" y2="578.381" gradientUnits="userSpaceOnUse">
<stop stop-color="#F7DD43"/>
<stop offset="1" stop-color="#F7DD43" stop-opacity="0"/>
</linearGradient>
<linearGradient id="paint6_linear_122_130" x1="84.5" y1="267" x2="84.5" y2="578.381" gradientUnits="userSpaceOnUse">
<stop stop-color="#F7DD43"/>
<stop offset="1" stop-color="#F7DD43" stop-opacity="0"/>
</linearGradient>
<linearGradient id="paint7_linear_122_130" x1="84.5" y1="267" x2="84.5" y2="578.381" gradientUnits="userSpaceOnUse">
<stop stop-color="#F7DD43"/>
<stop offset="1" stop-color="#F7DD43" stop-opacity="0"/>
</linearGradient>
<linearGradient id="paint8_linear_122_130" x1="84.5" y1="267" x2="84.5" y2="578.381" gradientUnits="userSpaceOnUse">
<stop stop-color="#F7DD43"/>
<stop offset="1" stop-color="#F7DD43" stop-opacity="0"/>
</linearGradient>
<linearGradient id="paint9_linear_122_130" x1="84.5" y1="267" x2="84.5" y2="578.381" gradientUnits="userSpaceOnUse">
<stop stop-color="#F7DD43"/>
<stop offset="1" stop-color="#F7DD43" stop-opacity="0"/>
</linearGradient>
<linearGradient id="paint10_linear_122_130" x1="84.5" y1="267" x2="84.5" y2="578.381" gradientUnits="userSpaceOnUse">
<stop stop-color="#F7DD43"/>
<stop offset="1" stop-color="#F7DD43" stop-opacity="0"/>
</linearGradient>
<linearGradient id="paint11_linear_122_130" x1="84.5" y1="267" x2="84.5" y2="578.381" gradientUnits="userSpaceOnUse">
<stop stop-color="#F7DD43"/>
<stop offset="1" stop-color="#F7DD43" stop-opacity="0"/>
</linearGradient>
<linearGradient id="paint12_linear_122_130" x1="84.5" y1="267" x2="84.5" y2="578.381" gradientUnits="userSpaceOnUse">
<stop stop-color="#F7DD43"/>
<stop offset="1" stop-color="#F7DD43" stop-opacity="0"/>
</linearGradient>
<linearGradient id="paint13_linear_122_130" x1="84.5" y1="267" x2="84.5" y2="578.381" gradientUnits="userSpaceOnUse">
<stop stop-color="#F7DD43"/>
<stop offset="1" stop-color="#F7DD43" stop-opacity="0"/>
</linearGradient>
<linearGradient id="paint14_linear_122_130" x1="84.5" y1="267" x2="84.5" y2="578.381" gradientUnits="userSpaceOnUse">
<stop stop-color="#F7DD43"/>
<stop offset="1" stop-color="#F7DD43" stop-opacity="0"/>
</linearGradient>
<linearGradient id="paint15_linear_122_130" x1="84.5" y1="267" x2="84.5" y2="578.381" gradientUnits="userSpaceOnUse">
<stop stop-color="#F7DD43"/>
<stop offset="1" stop-color="#F7DD43" stop-opacity="0"/>
</linearGradient>
<linearGradient id="paint16_linear_122_130" x1="84.5" y1="267" x2="84.5" y2="578.381" gradientUnits="userSpaceOnUse">
<stop stop-color="#F7DD43"/>
<stop offset="1" stop-color="#F7DD43" stop-opacity="0"/>
</linearGradient>
<linearGradient id="paint17_linear_122_130" x1="84.5" y1="267" x2="84.5" y2="578.381" gradientUnits="userSpaceOnUse">
<stop stop-color="#F7DD43"/>
<stop offset="1" stop-color="#F7DD43" stop-opacity="0"/>
</linearGradient>
<linearGradient id="paint18_linear_122_130" x1="84.5" y1="267" x2="84.5" y2="578.381" gradientUnits="userSpaceOnUse">
<stop stop-color="#F7DD43"/>
<stop offset="1" stop-color="#F7DD43" stop-opacity="0"/>
</linearGradient>
<linearGradient id="paint19_linear_122_130" x1="84.5" y1="267" x2="84.5" y2="578.381" gradientUnits="userSpaceOnUse">
<stop stop-color="#F7DD43"/>
<stop offset="1" stop-color="#F7DD43" stop-opacity="0"/>
</linearGradient>
<linearGradient id="paint20_linear_122_130" x1="84.5" y1="267" x2="84.5" y2="578.381" gradientUnits="userSpaceOnUse">
<stop stop-color="#F7DD43"/>
<stop offset="1" stop-color="#F7DD43" stop-opacity="0"/>
</linearGradient>
<linearGradient id="paint21_linear_122_130" x1="84.5" y1="267" x2="84.5" y2="578.381" gradientUnits="userSpaceOnUse">
<stop stop-color="#F7DD43"/>
<stop offset="1" stop-color="#F7DD43" stop-opacity="0"/>
</linearGradient>
<linearGradient id="paint22_linear_122_130" x1="84.5" y1="267" x2="84.5" y2="578.381" gradientUnits="userSpaceOnUse">
<stop stop-color="#F7DD43"/>
<stop offset="1" stop-color="#F7DD43" stop-opacity="0"/>
</linearGradient>
<linearGradient id="paint23_linear_122_130" x1="84.5" y1="267" x2="84.5" y2="578.381" gradientUnits="userSpaceOnUse">
<stop stop-color="#F7DD43"/>
<stop offset="1" stop-color="#F7DD43" stop-opacity="0"/>
</linearGradient>
<linearGradient id="paint24_linear_122_130" x1="84.5" y1="267" x2="84.5" y2="578.381" gradientUnits="userSpaceOnUse">
<stop stop-color="#F7DD43"/>
<stop offset="1" stop-color="#F7DD43" stop-opacity="0"/>
</linearGradient>
<linearGradient id="paint25_linear_122_130" x1="84.5" y1="267" x2="84.5" y2="578.381" gradientUnits="userSpaceOnUse">
<stop stop-color="#F7DD43"/>
<stop offset="1" stop-color="#F7DD43" stop-opacity="0"/>
</linearGradient>
<linearGradient id="paint26_linear_122_130" x1="84.5" y1="267" x2="84.5" y2="578.381" gradientUnits="userSpaceOnUse">
<stop stop-color="#F7DD43"/>
<stop offset="1" stop-color="#F7DD43" stop-opacity="0"/>
</linearGradient>
<linearGradient id="paint27_linear_122_130" x1="84.5" y1="267" x2="84.5" y2="578.381" gradientUnits="userSpaceOnUse">
<stop stop-color="#F7DD43"/>
<stop offset="1" stop-color="#F7DD43" stop-opacity="0"/>
</linearGradient>
<linearGradient id="paint28_linear_122_130" x1="84.5" y1="267" x2="84.5" y2="578.381" gradientUnits="userSpaceOnUse">
<stop stop-color="#F7DD43"/>
<stop offset="1" stop-color="#F7DD43" stop-opacity="0"/>
</linearGradient>
<linearGradient id="paint29_linear_122_130" x1="84.5" y1="267" x2="84.5" y2="578.381" gradientUnits="userSpaceOnUse">
<stop stop-color="#F7DD43"/>
<stop offset="1" stop-color="#F7DD43" stop-opacity="0"/>
</linearGradient>
<linearGradient id="paint30_linear_122_130" x1="84.5" y1="267" x2="84.5" y2="578.381" gradientUnits="userSpaceOnUse">
<stop stop-color="#F7DD43"/>
<stop offset="1" stop-color="#F7DD43" stop-opacity="0"/>
</linearGradient>
<linearGradient id="paint31_linear_122_130" x1="84.5" y1="267" x2="84.5" y2="578.381" gradientUnits="userSpaceOnUse">
<stop stop-color="#F7DD43"/>
<stop offset="1" stop-color="#F7DD43" stop-opacity="0"/>
</linearGradient>
<linearGradient id="paint32_linear_122_130" x1="84.5" y1="267" x2="84.5" y2="578.381" gradientUnits="userSpaceOnUse">
<stop stop-color="#F7DD43"/>
<stop offset="1" stop-color="#F7DD43" stop-opacity="0"/>
</linearGradient>
<linearGradient id="paint33_linear_122_130" x1="84.5" y1="267" x2="84.5" y2="578.381" gradientUnits="userSpaceOnUse">
<stop stop-color="#F7DD43"/>
<stop offset="1" stop-color="#F7DD43" stop-opacity="0"/>
</linearGradient>
<linearGradient id="paint34_linear_122_130" x1="84.5" y1="267" x2="84.5" y2="578.381" gradientUnits="userSpaceOnUse">
<stop stop-color="#F7DD43"/>
<stop offset="1" stop-color="#F7DD43" stop-opacity="0"/>
</linearGradient>
<linearGradient id="paint35_linear_122_130" x1="84.5" y1="267" x2="84.5" y2="578.381" gradientUnits="userSpaceOnUse">
<stop stop-color="#F7DD43"/>
<stop offset="1" stop-color="#F7DD43" stop-opacity="0"/>
</linearGradient>
<linearGradient id="paint36_linear_122_130" x1="84.5" y1="267" x2="84.5" y2="578.381" gradientUnits="userSpaceOnUse">
<stop stop-color="#F7DD43"/>
<stop offset="1" stop-color="#F7DD43" stop-opacity="0"/>
</linearGradient>
<linearGradient id="paint37_linear_122_130" x1="84.5" y1="267" x2="84.5" y2="578.381" gradientUnits="userSpaceOnUse">
<stop stop-color="#F7DD43"/>
<stop offset="1" stop-color="#F7DD43" stop-opacity="0"/>
</linearGradient>
<linearGradient id="paint38_linear_122_130" x1="84.5" y1="267" x2="84.5" y2="578.381" gradientUnits="userSpaceOnUse">
<stop stop-color="#F7DD43"/>
<stop offset="1" stop-color="#F7DD43" stop-opacity="0"/>
</linearGradient>
<linearGradient id="paint39_linear_122_130" x1="84.5" y1="267" x2="84.5" y2="578.381" gradientUnits="userSpaceOnUse">
<stop stop-color="#F7DD43"/>
<stop offset="1" stop-color="#F7DD43" stop-opacity="0"/>
</linearGradient>
<linearGradient id="paint40_linear_122_130" x1="84.5" y1="267" x2="84.5" y2="578.381" gradientUnits="userSpaceOnUse">
<stop stop-color="#F7DD43"/>
<stop offset="1" stop-color="#F7DD43" stop-opacity="0"/>
</linearGradient>
<linearGradient id="paint41_linear_122_130" x1="84.5" y1="267" x2="84.5" y2="578.381" gradientUnits="userSpaceOnUse">
<stop stop-color="#F7DD43"/>
<stop offset="1" stop-color="#F7DD43" stop-opacity="0"/>
</linearGradient>
<linearGradient id="paint42_linear_122_130" x1="84.5" y1="267" x2="84.5" y2="578.381" gradientUnits="userSpaceOnUse">
<stop stop-color="#F7DD43"/>
<stop offset="1" stop-color="#F7DD43" stop-opacity="0"/>
</linearGradient>
<linearGradient id="paint43_linear_122_130" x1="84.5" y1="267" x2="84.5" y2="578.381" gradientUnits="userSpaceOnUse">
<stop stop-color="#F7DD43"/>
<stop offset="1" stop-color="#F7DD43" stop-opacity="0"/>
</linearGradient>
<linearGradient id="paint44_linear_122_130" x1="84.5" y1="267" x2="84.5" y2="578.381" gradientUnits="userSpaceOnUse">
<stop stop-color="#F7DD43"/>
<stop offset="1" stop-color="#F7DD43" stop-opacity="0"/>
</linearGradient>
<linearGradient id="paint45_linear_122_130" x1="84.5" y1="267" x2="84.5" y2="578.381" gradientUnits="userSpaceOnUse">
<stop stop-color="#F7DD43"/>
<stop offset="1" stop-color="#F7DD43" stop-opacity="0"/>
</linearGradient>
<linearGradient id="paint46_linear_122_130" x1="84.5" y1="267" x2="84.5" y2="578.381" gradientUnits="userSpaceOnUse">
<stop stop-color="#F7DD43"/>
<stop offset="1" stop-color="#F7DD43" stop-opacity="0"/>
</linearGradient>
<linearGradient id="paint47_linear_122_130" x1="970.5" y1="-33" x2="970.5" y2="265.818" gradientUnits="userSpaceOnUse">
<stop stop-color="#F7DD43"/>
<stop offset="1" stop-color="#F7DD43" stop-opacity="0"/>
</linearGradient>
<linearGradient id="paint48_linear_122_130" x1="970.5" y1="-33" x2="970.5" y2="265.818" gradientUnits="userSpaceOnUse">
<stop stop-color="#F7DD43"/>
<stop offset="1" stop-color="#F7DD43" stop-opacity="0"/>
</linearGradient>
<linearGradient id="paint49_linear_122_130" x1="970.5" y1="-33" x2="970.5" y2="265.818" gradientUnits="userSpaceOnUse">
<stop stop-color="#F7DD43"/>
<stop offset="1" stop-color="#F7DD43" stop-opacity="0"/>
</linearGradient>
<linearGradient id="paint50_linear_122_130" x1="970.5" y1="-33" x2="970.5" y2="265.818" gradientUnits="userSpaceOnUse">
<stop stop-color="#F7DD43"/>
<stop offset="1" stop-color="#F7DD43" stop-opacity="0"/>
</linearGradient>
<linearGradient id="paint51_linear_122_130" x1="970.5" y1="-33" x2="970.5" y2="265.818" gradientUnits="userSpaceOnUse">
<stop stop-color="#F7DD43"/>
<stop offset="1" stop-color="#F7DD43" stop-opacity="0"/>
</linearGradient>
<linearGradient id="paint52_linear_122_130" x1="970.5" y1="-33" x2="970.5" y2="265.818" gradientUnits="userSpaceOnUse">
<stop stop-color="#F7DD43"/>
<stop offset="1" stop-color="#F7DD43" stop-opacity="0"/>
</linearGradient>
<linearGradient id="paint53_linear_122_130" x1="970.5" y1="-33" x2="970.5" y2="265.818" gradientUnits="userSpaceOnUse">
<stop stop-color="#F7DD43"/>
<stop offset="1" stop-color="#F7DD43" stop-opacity="0"/>
</linearGradient>
<linearGradient id="paint54_linear_122_130" x1="970.5" y1="-33" x2="970.5" y2="265.818" gradientUnits="userSpaceOnUse">
<stop stop-color="#F7DD43"/>
<stop offset="1" stop-color="#F7DD43" stop-opacity="0"/>
</linearGradient>
<linearGradient id="paint55_linear_122_130" x1="970.5" y1="-33" x2="970.5" y2="265.818" gradientUnits="userSpaceOnUse">
<stop stop-color="#F7DD43"/>
<stop offset="1" stop-color="#F7DD43" stop-opacity="0"/>
</linearGradient>
<linearGradient id="paint56_linear_122_130" x1="970.5" y1="-33" x2="970.5" y2="265.818" gradientUnits="userSpaceOnUse">
<stop stop-color="#F7DD43"/>
<stop offset="1" stop-color="#F7DD43" stop-opacity="0"/>
</linearGradient>
<linearGradient id="paint57_linear_122_130" x1="970.5" y1="-33" x2="970.5" y2="265.818" gradientUnits="userSpaceOnUse">
<stop stop-color="#F7DD43"/>
<stop offset="1" stop-color="#F7DD43" stop-opacity="0"/>
</linearGradient>
<linearGradient id="paint58_linear_122_130" x1="970.5" y1="-33" x2="970.5" y2="265.818" gradientUnits="userSpaceOnUse">
<stop stop-color="#F7DD43"/>
<stop offset="1" stop-color="#F7DD43" stop-opacity="0"/>
</linearGradient>
<linearGradient id="paint59_linear_122_130" x1="970.5" y1="-33" x2="970.5" y2="265.818" gradientUnits="userSpaceOnUse">
<stop stop-color="#F7DD43"/>
<stop offset="1" stop-color="#F7DD43" stop-opacity="0"/>
</linearGradient>
<linearGradient id="paint60_linear_122_130" x1="970.5" y1="-33" x2="970.5" y2="265.818" gradientUnits="userSpaceOnUse">
<stop stop-color="#F7DD43"/>
<stop offset="1" stop-color="#F7DD43" stop-opacity="0"/>
</linearGradient>
<linearGradient id="paint61_linear_122_130" x1="970.5" y1="-33" x2="970.5" y2="265.818" gradientUnits="userSpaceOnUse">
<stop stop-color="#F7DD43"/>
<stop offset="1" stop-color="#F7DD43" stop-opacity="0"/>
</linearGradient>
<linearGradient id="paint62_linear_122_130" x1="970.5" y1="-33" x2="970.5" y2="265.818" gradientUnits="userSpaceOnUse">
<stop stop-color="#F7DD43"/>
<stop offset="1" stop-color="#F7DD43" stop-opacity="0"/>
</linearGradient>
<linearGradient id="paint63_linear_122_130" x1="970.5" y1="-33" x2="970.5" y2="265.818" gradientUnits="userSpaceOnUse">
<stop stop-color="#F7DD43"/>
<stop offset="1" stop-color="#F7DD43" stop-opacity="0"/>
</linearGradient>
<linearGradient id="paint64_linear_122_130" x1="970.5" y1="-33" x2="970.5" y2="265.818" gradientUnits="userSpaceOnUse">
<stop stop-color="#F7DD43"/>
<stop offset="1" stop-color="#F7DD43" stop-opacity="0"/>
</linearGradient>
<linearGradient id="paint65_linear_122_130" x1="970.5" y1="-33" x2="970.5" y2="265.818" gradientUnits="userSpaceOnUse">
<stop stop-color="#F7DD43"/>
<stop offset="1" stop-color="#F7DD43" stop-opacity="0"/>
</linearGradient>
<linearGradient id="paint66_linear_122_130" x1="970.5" y1="-33" x2="970.5" y2="265.818" gradientUnits="userSpaceOnUse">
<stop stop-color="#F7DD43"/>
<stop offset="1" stop-color="#F7DD43" stop-opacity="0"/>
</linearGradient>
<linearGradient id="paint67_linear_122_130" x1="970.5" y1="-33" x2="970.5" y2="265.818" gradientUnits="userSpaceOnUse">
<stop stop-color="#F7DD43"/>
<stop offset="1" stop-color="#F7DD43" stop-opacity="0"/>
</linearGradient>
<linearGradient id="paint68_linear_122_130" x1="970.5" y1="-33" x2="970.5" y2="265.818" gradientUnits="userSpaceOnUse">
<stop stop-color="#F7DD43"/>
<stop offset="1" stop-color="#F7DD43" stop-opacity="0"/>
</linearGradient>
<linearGradient id="paint69_linear_122_130" x1="970.5" y1="-33" x2="970.5" y2="265.818" gradientUnits="userSpaceOnUse">
<stop stop-color="#F7DD43"/>
<stop offset="1" stop-color="#F7DD43" stop-opacity="0"/>
</linearGradient>
<linearGradient id="paint70_linear_122_130" x1="970.5" y1="-33" x2="970.5" y2="265.818" gradientUnits="userSpaceOnUse">
<stop stop-color="#F7DD43"/>
<stop offset="1" stop-color="#F7DD43" stop-opacity="0"/>
</linearGradient>
<linearGradient id="paint71_linear_122_130" x1="970.5" y1="-33" x2="970.5" y2="265.818" gradientUnits="userSpaceOnUse">
<stop stop-color="#F7DD43"/>
<stop offset="1" stop-color="#F7DD43" stop-opacity="0"/>
</linearGradient>
<linearGradient id="paint72_linear_122_130" x1="970.5" y1="-33" x2="970.5" y2="265.818" gradientUnits="userSpaceOnUse">
<stop stop-color="#F7DD43"/>
<stop offset="1" stop-color="#F7DD43" stop-opacity="0"/>
</linearGradient>
<linearGradient id="paint73_linear_122_130" x1="970.5" y1="-33" x2="970.5" y2="265.818" gradientUnits="userSpaceOnUse">
<stop stop-color="#F7DD43"/>
<stop offset="1" stop-color="#F7DD43" stop-opacity="0"/>
</linearGradient>
<linearGradient id="paint74_linear_122_130" x1="970.5" y1="-33" x2="970.5" y2="265.818" gradientUnits="userSpaceOnUse">
<stop stop-color="#F7DD43"/>
<stop offset="1" stop-color="#F7DD43" stop-opacity="0"/>
</linearGradient>
<linearGradient id="paint75_linear_122_130" x1="970.5" y1="-33" x2="970.5" y2="265.818" gradientUnits="userSpaceOnUse">
<stop stop-color="#F7DD43"/>
<stop offset="1" stop-color="#F7DD43" stop-opacity="0"/>
</linearGradient>
<linearGradient id="paint76_linear_122_130" x1="970.5" y1="-33" x2="970.5" y2="265.818" gradientUnits="userSpaceOnUse">
<stop stop-color="#F7DD43"/>
<stop offset="1" stop-color="#F7DD43" stop-opacity="0"/>
</linearGradient>
<linearGradient id="paint77_linear_122_130" x1="970.5" y1="-33" x2="970.5" y2="265.818" gradientUnits="userSpaceOnUse">
<stop stop-color="#F7DD43"/>
<stop offset="1" stop-color="#F7DD43" stop-opacity="0"/>
</linearGradient>
<linearGradient id="paint78_linear_122_130" x1="970.5" y1="-33" x2="970.5" y2="265.818" gradientUnits="userSpaceOnUse">
<stop stop-color="#F7DD43"/>
<stop offset="1" stop-color="#F7DD43" stop-opacity="0"/>
</linearGradient>
<linearGradient id="paint79_linear_122_130" x1="970.5" y1="-33" x2="970.5" y2="265.818" gradientUnits="userSpaceOnUse">
<stop stop-color="#F7DD43"/>
<stop offset="1" stop-color="#F7DD43" stop-opacity="0"/>
</linearGradient>
<linearGradient id="paint80_linear_122_130" x1="970.5" y1="-33" x2="970.5" y2="265.818" gradientUnits="userSpaceOnUse">
<stop stop-color="#F7DD43"/>
<stop offset="1" stop-color="#F7DD43" stop-opacity="0"/>
</linearGradient>
<linearGradient id="paint81_linear_122_130" x1="970.5" y1="-33" x2="970.5" y2="265.818" gradientUnits="userSpaceOnUse">
<stop stop-color="#F7DD43"/>
<stop offset="1" stop-color="#F7DD43" stop-opacity="0"/>
</linearGradient>
<linearGradient id="paint82_linear_122_130" x1="970.5" y1="-33" x2="970.5" y2="265.818" gradientUnits="userSpaceOnUse">
<stop stop-color="#F7DD43"/>
<stop offset="1" stop-color="#F7DD43" stop-opacity="0"/>
</linearGradient>
<linearGradient id="paint83_linear_122_130" x1="970.5" y1="-33" x2="970.5" y2="265.818" gradientUnits="userSpaceOnUse">
<stop stop-color="#F7DD43"/>
<stop offset="1" stop-color="#F7DD43" stop-opacity="0"/>
</linearGradient>
<linearGradient id="paint84_linear_122_130" x1="970.5" y1="-33" x2="970.5" y2="265.818" gradientUnits="userSpaceOnUse">
<stop stop-color="#F7DD43"/>
<stop offset="1" stop-color="#F7DD43" stop-opacity="0"/>
</linearGradient>
<linearGradient id="paint85_linear_122_130" x1="970.5" y1="-33" x2="970.5" y2="265.818" gradientUnits="userSpaceOnUse">
<stop stop-color="#F7DD43"/>
<stop offset="1" stop-color="#F7DD43" stop-opacity="0"/>
</linearGradient>
<linearGradient id="paint86_linear_122_130" x1="970.5" y1="-33" x2="970.5" y2="265.818" gradientUnits="userSpaceOnUse">
<stop stop-color="#F7DD43"/>
<stop offset="1" stop-color="#F7DD43" stop-opacity="0"/>
</linearGradient>
<linearGradient id="paint87_linear_122_130" x1="970.5" y1="-33" x2="970.5" y2="265.818" gradientUnits="userSpaceOnUse">
<stop stop-color="#F7DD43"/>
<stop offset="1" stop-color="#F7DD43" stop-opacity="0"/>
</linearGradient>
<linearGradient id="paint88_linear_122_130" x1="970.5" y1="-33" x2="970.5" y2="265.818" gradientUnits="userSpaceOnUse">
<stop stop-color="#F7DD43"/>
<stop offset="1" stop-color="#F7DD43" stop-opacity="0"/>
</linearGradient>
<linearGradient id="paint89_linear_122_130" x1="970.5" y1="-33" x2="970.5" y2="265.818" gradientUnits="userSpaceOnUse">
<stop stop-color="#F7DD43"/>
<stop offset="1" stop-color="#F7DD43" stop-opacity="0"/>
</linearGradient>
<linearGradient id="paint90_linear_122_130" x1="970.5" y1="-33" x2="970.5" y2="265.818" gradientUnits="userSpaceOnUse">
<stop stop-color="#F7DD43"/>
<stop offset="1" stop-color="#F7DD43" stop-opacity="0"/>
</linearGradient>
<linearGradient id="paint91_linear_122_130" x1="970.5" y1="-33" x2="970.5" y2="265.818" gradientUnits="userSpaceOnUse">
<stop stop-color="#F7DD43"/>
<stop offset="1" stop-color="#F7DD43" stop-opacity="0"/>
</linearGradient>
<linearGradient id="paint92_linear_122_130" x1="970.5" y1="-33" x2="970.5" y2="265.818" gradientUnits="userSpaceOnUse">
<stop stop-color="#F7DD43"/>
<stop offset="1" stop-color="#F7DD43" stop-opacity="0"/>
</linearGradient>
<linearGradient id="paint93_linear_122_130" x1="970.5" y1="-33" x2="970.5" y2="265.818" gradientUnits="userSpaceOnUse">
<stop stop-color="#F7DD43"/>
<stop offset="1" stop-color="#F7DD43" stop-opacity="0"/>
</linearGradient>
<clipPath id="clip0_122_130">
<rect width="1024" height="753" fill="white"/>
</clipPath>
</defs>
</svg>
